<svg xmlns="http://www.w3.org/2000/svg" viewBox="0 0 475 25" width="475" height="25"><g fill="#799D90"><path d="M0 6.9h25v3H0zM0 14.9h25v3H0z"/></g><g fill="#799D90"><path d="M25.034 6.868l24.947.128-.015 2.993-24.947-.127zM25.019 14.938l24.947-.127.015 2.993-24.947.128z"/></g><g fill="#799D90"><path d="M50.155 6.756l24.76.58-.07 2.971-24.76-.58zM50.085 15.073l24.76-.58.07 2.971-24.76.58z"/></g><g fill="#799D90"><path d="M75.402 6.526L99.779 8.03l-.181 2.925-24.377-1.504zM75.221 15.349l24.377-1.504.181 2.925-24.377 1.504z"/></g><g fill="#799D90"><path d="M100.827 6.129l23.718 3.097-.372 2.846-23.717-3.097zM100.456 15.825l23.717-3.097.372 2.846-23.718 3.097z"/></g><g fill="#799D90"><path d="M126.45 5.549l22.751 5.429-.651 2.73-22.751-5.429z"/><path d="M125.799 16.521l22.751-5.43.651 2.731-22.751 5.429z"/></g><g fill="#799D90"><path d="M152.159 4.888l21.652 8.083-.97 2.598-21.652-8.083z"/><path d="M151.189 17.313l21.652-8.083.97 2.599-21.652 8.082z"/></g><g fill="#799D90"><path d="M177.788 4.302l20.677 10.437-1.253 2.481-20.676-10.437z"/><path d="M176.536 18.016l20.677-10.437 1.252 2.482-20.677 10.436z"/></g><g fill="#799D90"><path d="M203.283 3.841l19.909 12.29-1.475 2.389-19.909-12.29z"/><path d="M201.808 18.569l19.91-12.29 1.474 2.39-19.909 12.289z"/></g><g fill="#799D90"><path d="M228.662 3.488l19.322 13.71-1.646 2.318-19.321-13.71z"/><path d="M227.017 18.993l19.322-13.71 1.645 2.319-19.322 13.71z"/></g><g fill="#799D90"><path d="M253.953 3.217l18.87 14.798-1.776 2.265-18.87-14.799z"/><path d="M252.177 19.318L271.048 4.52l1.775 2.265-18.87 14.798z"/></g><g fill="#799D90"><path d="M279.176 3.008L297.7 18.644l-1.876 2.222L277.3 5.231z"/><path d="M277.3 19.568l18.524-15.635 1.876 2.223-18.524 15.635z"/></g><g fill="#799D90"><path d="M304.348 2.849l18.258 16.277-1.954 2.191-18.257-16.278z"/><path d="M302.395 19.76l18.258-16.278 1.953 2.192-18.258 16.276z"/></g><g fill="#799D90"><path d="M329.478 2.727l18.056 16.765-2.012 2.166-18.055-16.764z"/><path d="M327.467 19.905l18.056-16.764 2.011 2.167-18.056 16.764z"/></g><g fill="#799D90"><path d="M354.575 2.637l17.906 17.127-2.056 2.148L352.52 4.786z"/><path d="M352.52 20.013l17.906-17.126 2.055 2.149-17.906 17.126z"/></g><g fill="#799D90"><path d="M379.643 2.573l17.8 17.384-2.086 2.136-17.799-17.384z"/><path d="M377.558 20.09l17.8-17.384 2.085 2.137-17.8 17.383z"/></g><g fill="#799D90"><path d="M404.689 2.531l17.729 17.554-2.107 2.127-17.728-17.554z"/><path d="M402.583 20.141l17.729-17.554 2.106 2.128-17.729 17.553z"/></g><g fill="#799D90"><path d="M429.714 2.507l17.69 17.649-2.118 2.122L427.597 4.63z"/><path d="M427.597 20.169l17.69-17.648 2.117 2.123-17.69 17.648z"/></g><g fill="#799D90"><path d="M454.722 2.5L472.4 20.178l-2.122 2.121-17.677-17.678z"/><path d="M452.601 20.178L470.279 2.5l2.121 2.122-17.678 17.677z"/></g></svg>
